<?xml version="1.0" encoding="UTF-8" standalone="no"?>
<svg xmlns="http://www.w3.org/2000/svg" viewBox="0 0 121.18 135.47">
    <!-- Background -->
    <path style="fill: #363636" d="M72.79,135.40C53.51,134.33 32.60,131.01 16.97,119.23 14.34,117.25 11.86,115.03 9.57,112.54-3.68,98.20-2.45,75.05 8.84,59.26 22.62,39.98 40.73,20.81 65.07,17.54c18.27,-2.46 36.74,7.80 45.81,24.00 11.82,21.10 14.21,48.97 2.57,70.07-2.06,3.74-4.56,7.26-7.53,10.50-8.25,9.01-20.80,13.99-33.14,13.30z"/>

    <!-- Ponytail -->
    <path style="fill: #949494" d="m99.46,83.12-1.13,-7.84 0.23,-11.73-0.25,-6.84-1.64,-4.32-2.56,-3.12-5.29,-2.56-3.34,-0.97-0.32,0.76-1.64,1.55-1.38,0.04-1.93,8.12 2.45,8.66 4.22,7.66 5.28,6.52z"/>

    <!-- T-shirt -->
    <path style="fill: #DB70A6" d="m41.87,75.33-14.03,8.99-5.08,5.54-3.42,7.88-1.54,10.81-0.83,10.67c15.63,11.78 36.54,15.10 55.82,16.18 12.34,0.69 24.88,-4.29 33.14,-13.30 2.97,-3.24 5.47,-6.76 7.53,-10.50l-0.99,-10.85-2.54,-7.74-3.83,-5.37-3.74,-2.88-4.87,-2.74-5.33,-2.97-4.69,-3.63-2.68,-2.71-4.08,4.06-5.24,4.51-5.52,3.19-5.70,2.25-6.06,1.15-5.48,0.09-4.87,-1.31-3.24,-2.04-1.85,-3.16-0.62,-3.39z"/>

    <!-- Skin -->
    <path style="fill: #E3E3E3" d="m42.07,75.30 0.06,2.76 0.62,3.39 1.85,3.16 3.24,2.04 4.87,1.31 5.48,-0.09 6.06,-1.15 5.70,-2.25 5.52,-3.19 5.24,-4.51 4.08,-4.06-4.11,-6.31-1.40,-2.69 0.54,-6.35 1.45,-6.17 0.86,-3.10 1.38,-0.04 1.64,-1.55 1.32,-2.69 3.15,-4.15 1.07,-1.97 0.73,-3.02 0.21,-3.54-0.92,-1.68-1.03,-0.82-1.82,-0.34-1.72,0.25-1.91,1.03-0.99,1.49-0.63,1.99-1.34,6.65-2.52,-0.29 1.89,-6.40 0.52,-4.19-0.71,-2.89-2.20,-2.22-3.38,-2.29-0.27,-1.70 0.27,-1.83v-2.29l-1.07,-2.01-1.99,-0.94-2.68,-0.19-2.75,0.46-8.70,2.37-4.01,-0.34-6.36,-3.57h-2.37l-4.47,2.29-3.12,8.07-1.03,9.50 0.38,8.18 2.14,11.66 3.21,12.38 4.93,0.69 0.57,3.95-0.24,3.65-2.89,1.65z"/>

    <!-- Hair -->
    <path style="fill: #949494" d="m87.86,28.29-1.72,0.25-1.91,1.03-0.99,1.49-0.63,1.99-1.34,6.65-2.52,-0.29 1.89,-6.40 0.52,-4.19-0.71,-2.89-2.20,-2.22-3.38,-2.29v-3.54-2.29l-1.07,-2.01-1.99,-0.94-2.68,-0.19-2.75,0.46-8.70,2.37-4.01,-0.34-6.36,-3.57h-2.37l-4.47,2.29 3.46,-4.87 5.18,-4.15 6.86,-3.13 7.45,-1.18 7.07,0.88 6.92,3.13 6.00,4.91 3.27,4.97 1.53,5.81z"/>

    <!-- Lines -->
    <path style="fill: #040404" d="m78.70,134.81c-0.10,-0.05-0.17,-0.12-0.21,-0.24-0.04,-0.12-0.06,-4.11-0.03,-6.21 0.07,-5.18 0.23,-8.04 0.72,-12.96 0.26,-2.62 0.42,-3.96 0.47,-4.07 0.16,-0.32 0.63,-0.28 0.76,0.05 0.04,0.10 0.03,0.14-0.11,1.48-0.82,7.53-1.04,11.78-1.01,19.92 0.01,2.00 0.01,1.83-0.06,1.91-0.13,0.17-0.35,0.22-0.54,0.13zM26.51,124.79c-0.29,-0.09-0.28,-0.18-0.21,-1.13 0.30,-3.94 0.53,-6.14 0.86,-8.73 0.35,-2.78 1.36,-8.79 1.52,-9.01 0.16,-0.23 0.48,-0.24 0.66,-0.03 0.14,0.15 0.14,0.14-0.11,1.44-0.49,2.64-0.98,5.67-1.24,7.69-0.32,2.52-0.54,4.66-0.86,8.73-0.08,1.02-0.19,1.19-0.64,1.05zm-9.56,-6.02c-0.11,-0.05-0.21,-0.16-0.24,-0.27-0.03,-0.09 0.03,-1.07 0.23,-3.81 0.72,-10.06 1.73,-16.46 3.24,-20.43 1.45,-3.81 3.66,-6.90 6.99,-9.76 1.78,-1.52 3.57,-2.76 8.11,-5.62 4.11,-2.58 6.68,-4.44 10.90,-7.15 0.42,-0.27 0.57,-0.34 0.62,-0.38 0.13,-0.08 0.16,-0.16 0.25,-1.10 0.04,-0.39 0.04,-2.07-2.73e-4,-2.51-0.09,-1.01-0.20,-1.78-0.41,-2.77-0.12,-0.61-0.03,-0.52-0.71,-0.61-0.69,-0.09-0.64,-0.13-0.41,0.36 0.24,0.50 0.24,0.66 0.00,0.83-0.36,0.24-0.70,-0.12-1.06,-1.13-0.11,-0.31 0.07,-0.25-1.38,-0.46-0.65,-0.09-1.21,-0.19-1.24,-0.20C41.63,63.65 41.61,63.58 40.94,60.93 40.61,59.64 40.30,58.41 40.24,58.19 38.25,50.59 36.92,44.40 36.36,40.08 36.32,39.79 36.32,39.79 36.11,39.57c-1.17,-1.20-1.76,-2.78-1.91,-5.10-0.19,-2.98 0.53,-5.75 1.90,-7.32 0.24,-0.27 0.23,-0.24 0.37,-1.76 0.14,-1.51 0.19,-1.88 0.54,-3.49 0.44,-2.08 0.59,-2.56 1.46,-4.73 1.65,-4.13 2.70,-5.86 5.15,-8.52 0.70,-0.76 2.16,-2.05 3.26,-2.88 0.78,-0.59 2.30,-1.60 2.91,-1.95 5.45,-3.05 11.13,-4.29 16.72,-3.67 1.32,0.15 1.91,0.25 3.46,0.62 1.15,0.27 1.18,0.28 2.01,0.57 2.96,1.04 5.43,2.43 8.71,4.92 1.54,1.17 3.47,3.20 4.45,4.70 1.49,2.27 2.50,4.50 3.07,6.79 0.53,2.13 0.56,4.56 0.11,9.29-0.08,0.85-0.08,0.83 0.05,0.83 1.00,9.37e-4 2.28,0.69 2.83,1.53 0.69,1.05 0.84,1.50 0.84,2.56 3.13e-4,0.41-0.08,0.37 0.61,0.26 0.87,-0.15 1.12,-0.06 1.07,0.36-0.04,0.31-0.10,0.34-0.99,0.49-0.85,0.14-0.74,0.08-0.79,0.50-0.02,0.19-0.09,0.62-0.15,0.98-0.13,0.76-0.24,0.66 0.72,0.66 0.81,0 0.81,0 0.90,0.05 0.22,0.13 0.28,0.44 0.11,0.63-0.13,0.15-0.11,0.15-1.11,0.16-0.91,0.01-0.91,0.01-1.03,0.46-0.41,1.57-0.77,2.32-1.95,4.07-0.78,1.16-0.94,1.37-2.11,2.82-0.29,0.36-0.58,0.72-0.63,0.80-0.06,0.08-0.12,0.16-0.13,0.17-0.18,0.22-0.64,1.13-0.58,1.16 0.02,0.01 0.36,0.10 0.76,0.20 8.09,2.09 11.31,5.49 12.06,12.75 0.19,1.89 0.20,3.93 0.03,9.13-0.15,4.66-0.10,6.65 0.23,10.06 0.17,1.76 0.74,5.06 0.90,5.22 0.02,0.01 0.25,0.15 0.53,0.30 4.90,2.71 7.58,5.34 9.66,9.47 1.01,2.01 1.55,3.53 2.29,6.55 0.64,2.56 1.03,5.46 1.26,10.73 0.03,0.57 0.02,0.64-0.07,0.77-0.11,0.16-0.41,0.20-0.58,0.08-0.17,-0.13-0.18,-0.17-0.22,-1.17-0.12,-2.90-0.33,-4.93-0.63,-6.99-0.27,-1.90-0.56,-3.25-1.14,-5.28-1.24,-4.38-3.49,-7.98-6.51,-10.44-1.31,-1.07-4.20,-2.93-5.09,-3.29-0.06,-0.02-0.13,-0.07-0.17,-0.09-0.08,-0.06-1.63,-0.90-2.45,-1.33-1.10,-0.58-1.42,-0.75-2.14,-1.15-0.82,-0.45-1.37,-0.77-1.87,-1.06-0.18,-0.11-0.39,-0.22-0.46,-0.26-0.07,-0.03-0.16,-0.09-0.20,-0.12-0.04,-0.03-0.23,-0.16-0.41,-0.27-2.51,-1.57-4.66,-3.41-6.69,-5.72-0.40,-0.45-0.22,-0.54-1.30,0.61-5.60,5.96-10.32,9.36-16.40,11.78-3.82,1.53-7.02,2.23-11.20,2.47-4.96,0.29-9.80,-1.30-12.19,-3.99-1.52,-1.72-2.32,-3.74-2.47,-6.23-0.03,-0.44 0.00,-1.99 0.04,-2.26 0.02,-0.13 0.02,-0.13-0.35,0.11-1.17,0.77-3.74,2.42-5.70,3.65-4.05,2.54-5.86,3.78-7.59,5.23-3.37,2.81-5.58,5.88-7.03,9.72-0.36,0.96-0.78,2.37-1.07,3.63-0.49,2.11-1.13,6.11-1.38,8.68-0.01,0.06-0.04,0.35-0.07,0.64-0.28,2.58-0.55,5.80-0.80,9.67-0.04,0.65-0.08,1.21-0.09,1.23-0.08,0.23-0.35,0.34-0.57,0.24zM55.92,87.62c3.61,-0.20 5.99,-0.63 9.14,-1.69 5.61,-1.87 10.63,-4.96 15.24,-9.38 1.09,-1.05 3.90,-3.95 3.90,-4.03 0,-0.01-0.11,-0.16-0.23,-0.33-1.42,-1.83-2.63,-3.79-3.86,-6.24-0.20,-0.39-0.36,-0.71-0.37,-0.71-0.02,0 0.01,2.31 0.04,2.70 0.07,1.10 0.21,2.00 0.45,2.91 0.14,0.54 0.14,0.60 0.03,0.76-0.18,0.25-0.65,0.18-0.74,-0.11-0.66,-2.27-0.78,-4.83-0.48,-10.00 0.19,-3.26 0.76,-6.54 1.80,-10.30 0.16,-0.59 0.75,-2.62 0.77,-2.69 0.01,-0.03-0.27,-0.15-0.35,-0.15-0.01,0-0.16,0.32-0.32,0.71-0.47,1.10-1.00,2.19-1.46,3.00-0.12,0.21-0.13,0.17 0.14,0.38 0.38,0.29 0.45,0.51 0.26,0.75-0.17,0.22-0.41,0.20-0.76,-0.06-0.10,-0.08-0.18,-0.13-0.19,-0.13-0.00,0.00-0.10,0.16-0.22,0.35-0.28,0.45-0.76,1.19-0.91,1.40-0.15,0.21-0.15,0.18 0.09,0.42 0.29,0.29 0.34,0.46 0.20,0.67-0.17,0.26-0.47,0.25-0.74,-0.03-0.19,-0.19-0.16,-0.20-0.42,0.14-0.29,0.38-0.94,1.14-1.28,1.53-0.33,0.37-0.33,0.31-0.03,0.62 0.37,0.38 0.43,0.61 0.19,0.82-0.22,0.20-0.44,0.14-0.79,-0.21-0.25,-0.25-0.25,-0.25-0.78,0.29-0.44,0.46-0.80,0.79-1.13,1.05-0.06,0.05-0.02,0.12 0.26,0.43 0.29,0.32 0.26,0.64-0.06,0.77-0.25,0.10-0.39,0.03-0.75,-0.42-0.08,-0.09-0.15,-0.18-0.16,-0.19-0.01,-0.01-0.20,0.11-0.42,0.27-0.51,0.36-1.12,0.75-1.62,1.03-0.21,0.12-0.39,0.23-0.40,0.24-0.01,0.01 0.05,0.12 0.13,0.24 0.27,0.39 0.25,0.65-0.04,0.79-0.25,0.12-0.42,0.04-0.67,-0.34-0.09,-0.14-0.17,-0.25-0.18,-0.26-0.01,-0.01-0.24,0.09-0.52,0.23-0.57,0.28-1.15,0.52-1.66,0.68-0.19,0.06-0.35,0.12-0.36,0.12-0.02,0.02 0.05,0.12 0.23,0.36 0.29,0.38-0.17,0.88-0.56,0.61-0.05,-0.03-0.17,-0.18-0.29,-0.34-0.11,-0.16-0.22,-0.31-0.24,-0.34-0.03,-0.04-0.04,-0.04-0.27,0.01-0.34,0.09-2.30,0.49-2.37,0.49-0.03,0 0.01,0.06 0.15,0.23 0.24,0.29 0.26,0.50 0.07,0.69-0.29,0.29-0.61,0.09-1.17,-0.71-0.04,-0.05-0.04,-0.05-0.51,0.01-0.72,0.09-1.31,0.15-1.61,0.17-0.15,0.01-0.27,0.02-0.27,0.03 0,0.01 0.05,0.11 0.10,0.23 0.20,0.40 0.06,0.73-0.32,0.73-0.24,0-0.29,-0.06-0.54,-0.54-0.19,-0.37-0.19,-0.37-1.00,-0.36-0.45,0.01-1.09,0.02-1.44,0.02-0.48,0.01-0.63,0.01-0.62,0.04 0.00,0.02 0.07,0.13 0.15,0.26 0.14,0.22 0.16,0.28 0.15,0.44-0.02,0.25-0.33,0.43-0.58,0.32-0.14,-0.06-0.39,-0.42-0.57,-0.83-0.10,-0.23-0.10,-0.23-0.81,-0.24-0.39,-0.01-1.02,-0.03-1.40,-0.04-0.82,-0.02-0.75,-0.07-0.54,0.36 0.22,0.47 0.21,0.66-0.06,0.80-0.34,0.18-0.64,-0.14-0.96,-1.01-0.08,-0.23 0.01,-0.20-0.85,-0.25-0.40,-0.02-1.16,-0.08-1.64,-0.13-0.18,-0.02-0.18,-0.02 0.05,0.45 0.23,0.47 0.05,0.83-0.37,0.77-0.22,-0.03-0.54,-0.55-0.73,-1.20-0.03,-0.11-0.06,-0.13-0.25,-0.14-0.16,-0.01-0.15,-0.06-0.05,0.44 0.97,4.86 0.24,9.05-1.97,11.40-0.27,0.29-0.73,0.12-0.73,-0.27 1.94e-4,-0.15 0.01,-0.18 0.29,-0.52 0.68,-0.83 1.17,-1.77 1.48,-2.83 0.11,-0.39 0.21,-0.43-0.96,0.37-0.56,0.38-1.48,1.00-2.05,1.38-1.22,0.82-1.08,0.69-1.11,1.06-0.52,5.93 1.66,9.44 6.96,11.21 1.88,0.63 4.37,0.95 6.49,0.83zm43.04,-5.32c0,-0.00-0.05,-0.26-0.11,-0.58-0.58,-2.91-0.91,-6.63-0.91,-10.28 1.46e-4,-0.98 0.01,-1.27 0.10,-4.39 0.03,-1.02 0.07,-2.22 0.08,-2.68C98.44,52.77 95.92,48.91 86.41,46.49c-0.89,-0.23-0.78,-0.23-0.91,0.04-0.54,1.17-1.50,1.87-2.77,2.01-0.24,0.03-0.26,0.03-0.28,0.08-0.08,0.21-0.85,2.92-1.07,3.76-0.68,2.61-0.54,5.25 0.43,8.49 0.08,0.25 0.14,0.48 0.15,0.50 0.18,0.74 1.27,3.54 1.99,5.07 1.65,3.56 3.02,5.59 6.53,9.71 1.31,1.54 1.43,1.68 1.79,2.13 0.54,0.67 0.49,0.63 0.94,0.90 1.11,0.66 2.48,1.41 3.67,2.03 0.35,0.18 0.95,0.50 1.33,0.71 0.65,0.35 0.73,0.39 0.73,0.37zm-8.71,-5.11c-0.01,-0.02-0.25,-0.31-0.54,-0.64-2.19,-2.56-3.27,-3.98-4.42,-5.82-2.30,-3.67-4.53,-9.36-4.97,-12.67-0.02,-0.11-0.03,-0.21-0.04,-0.21-0.07,0-0.34,2.60-0.42,4.14-0.07,1.39-0.07,1.32 0.02,1.52 0.04,0.09 0.14,0.31 0.22,0.48 2.69,5.81 5.76,9.86 9.89,13.02 0.28,0.21 0.30,0.23 0.27,0.18zM54.73,64.05c-0.23,-0.83-0.41,-2.02-0.33,-2.22 0.11,-0.30 0.48,-0.37 0.70,-0.13 0.09,0.09 0.10,0.15 0.13,0.45 0.05,0.57 0.22,1.37 0.38,1.88 0.02,0.08 0.02,0.08 1.42,0.07 1.60,-0.01 1.47,0.01 1.38,-0.20-0.24,-0.58-0.50,-1.91-0.44,-2.09 0.13,-0.44 0.73,-0.39 0.83,0.06 0.18,0.84 0.26,1.36 0.48,1.91 0.13,0.32 0.19,0.32 1.93,0.12 0.57,-0.07 0.51,-0.03 0.41,-0.28-0.33,-0.86-0.48,-1.82-0.32,-2.03 0.29,-0.38 0.71,-0.16 0.78,0.40 0.08,0.62 0.43,1.72 0.54,1.72 0.13,0 2.40,-0.45 2.66,-0.53 0.12,-0.04 0.12,-0.01 0.01,-0.37-0.28,-0.92-0.37,-1.53-0.26,-1.70 0.19,-0.28 0.69,-0.22 0.76,0.09 0.01,0.03 0.04,0.21 0.08,0.40 0.11,0.54 0.29,1.23 0.34,1.29 0.02,0.02 0.43,-0.10 0.86,-0.25 0.63,-0.22 1.73,-0.74 1.71,-0.80-0.01,-0.02-0.06,-0.17-0.13,-0.34-0.56,-1.52-0.58,-2.17-0.05,-2.17 0.27,0 0.37,0.12 0.48,0.63 0.13,0.56 0.39,1.40 0.46,1.47 0.05,0.05 1.31,-0.72 2.10,-1.29 0.28,-0.20 0.27,-0.17 0.16,-0.37-0.34,-0.58-0.74,-1.78-0.68,-2.04 0.12,-0.51 0.70,-0.42 0.85,0.13 0.18,0.66 0.52,1.54 0.61,1.54 0.06,0 0.73,-0.62 1.22,-1.15 0.51,-0.54 0.48,-0.44 0.25,-0.85-0.69,-1.21-1.01,-2.05-0.89,-2.31 0.20,-0.40 0.66,-0.29 0.82,0.18 0.18,0.52 0.76,1.74 0.87,1.81 0.03,0.02 1.02,-1.15 1.49,-1.75 0.22,-0.29 0.22,-0.29 0.18,-0.35-0.02,-0.03-0.14,-0.19-0.26,-0.34-0.36,-0.47-0.83,-1.29-0.92,-1.62-0.11,-0.39 0.29,-0.68 0.64,-0.47 0.06,0.04 0.11,0.13 0.28,0.46 0.60,1.21 0.77,1.38 1.03,0.98 0.97,-1.47 1.00,-1.54 0.87,-1.68-0.40,-0.45-0.49,-0.59-0.75,-1.13-0.50,-1.04-0.53,-1.29-0.18,-1.47 0.28,-0.15 0.47,-0.01 0.67,0.48 0.33,0.81 0.74,1.52 0.82,1.44 0.09,-0.09 0.90,-1.72 1.20,-2.39 0.58,-1.33 0.59,-1.35 0.50,-1.47-0.15,-0.19-0.35,-0.72-0.41,-1.08-0.09,-0.52 0.12,-1.75 0.34,-2.00 0.31,-0.36 0.88,0.02 0.69,0.46-0.12,0.28-0.24,1.15-0.19,1.39 0.10,0.54 0.25,0.79 0.59,0.95 0.47,0.23 0.92,0.27 1.55,0.14 0.96,-0.21 1.36,-0.62 2.03,-2.10 0.62,-1.37 0.70,-1.51 1.78,-2.83 1.07,-1.31 1.19,-1.47 1.93,-2.58 0.99,-1.47 1.12,-1.70 1.52,-2.79 0.19,-0.51 0.40,-1.24 0.37,-1.28-0.01,-0.01-0.18,-0.01-0.43,-0.01-0.65,0.02-0.90,-0.13-0.81,-0.50 0.07,-0.29 0.17,-0.33 0.88,-0.35 0.31,-0.01 0.56,-0.02 0.56,-0.03 0.03,-0.06 0.30,-1.80 0.28,-1.82-0.01,-0.01-0.27,0.03-0.58,0.08-0.59,0.10-0.62,0.10-0.77,0.02-0.18,-0.09-0.24,-0.38-0.13,-0.57 0.09,-0.16 0.16,-0.18 0.88,-0.30 0.36,-0.06 0.66,-0.12 0.68,-0.13 0.04,-0.03 0.02,-1.00-0.03,-1.26-0.08,-0.43-0.53,-1.25-0.89,-1.62-1.29,-1.35-4.35,-1.11-5.89,0.46-0.67,0.69-0.93,1.19-1.17,2.30-0.02,0.11-0.08,0.36-0.13,0.57-0.43,1.93-0.81,3.85-1.17,5.86-0.27,1.51-0.29,1.55-1.00,1.43-0.11,-0.02-0.49,-0.07-0.85,-0.10-1.47,-0.16-1.50,-0.16-1.65,-0.47-0.11,-0.23-0.11,-0.28 0.09,-0.82 0.17,-0.47 0.47,-1.40 0.65,-2.02 0.12,-0.39 0.99,-3.72 1.21,-4.63 0.63,-2.55 0.47,-4.70-0.46,-6.10-0.58,-0.88-1.24,-1.42-3.12,-2.58-0.56,-0.34-0.76,-0.48-1.32,-0.94-1.23,-0.98-1.45,-1.80-1.11,-4.04 0.53,-3.49-0.40,-5.06-3.29,-5.55-0.28,-0.05-1.68,-0.05-2.29,-0.01-1.28,0.09-3.03,0.51-6.18,1.49-5.80,1.79-8.14,1.71-11.43,-0.40-0.18,-0.11-0.67,-0.44-1.11,-0.73-1.39,-0.94-2.26,-1.36-3.03,-1.48-1.16,-0.19-1.59,-0.14-2.75,0.30-0.90,0.34-1.52,0.71-2.67,1.57-0.88,0.67-1.06,0.81-1.11,0.92-0.54,1.10-1.65,3.82-2.06,5.06-0.26,0.80-0.81,3.21-0.96,4.23-0.08,0.58-0.25,2.26-0.23,2.28 0.01,0.01 0.10,-0.05 0.21,-0.11 2.15,-1.35 5.12,-1.61 12.81,-1.18 1.62,0.09 3.24,0.21 4.91,0.27 0.01,-0.01 0.04,-0.33 0.08,-0.71 0.10,-1.21 0.09,-1.16 0.15,-1.25 0.18,-0.26 0.59,-0.24 0.73,0.05 0.06,0.13 0.06,0.24-0.04,1.31-0.03,0.36-0.05,0.65-0.05,0.65 0.02,0.02 2.60,0.14 4.90,0.24 0.91,0.04 1.79,0.07 1.96,0.08 0.17,0.01 0.80,0.03 1.40,0.06 8.01,0.33 11.19,1.16 13.16,3.42 1.71,1.97 1.72,5.37 0.02,8.62-0.28,0.54-0.91,1.46-1.37,2.00-2.92,3.48-8.87,4.15-13.55,1.54-1.85,-1.04-2.83,-2.45-3.48,-5.05-0.72,-2.87-0.90,-7.53-0.39,-9.74 0.02,-0.09 0.03,-0.16 0.03,-0.16-0.00,-0.00-0.54,-0.03-1.18,-0.07-0.65,-0.03-1.27,-0.06-1.38,-0.07-0.21,-0.01-0.21,-0.01-0.22,0.06-0.01,0.04-0.04,0.32-0.08,0.61-0.17,1.32-0.42,2.72-0.78,4.39-0.15,0.72-0.23,1.08-0.67,2.97-0.96,4.16-1.28,6.08-1.33,7.93-0.11,4.23 1.22,5.30 4.60,3.72 0.27,-0.13 0.74,-0.34 1.04,-0.48 0.94,-0.44 0.99,-0.46 1.19,-0.37 0.35,0.16 0.31,0.62-0.06,0.79-0.42,0.19-0.60,0.27-1.34,0.62-1.15,0.54-1.48,0.68-2.10,0.85-2.38,0.66-3.89,-0.64-4.12,-3.53-0.05,-0.62-0.08,-1.37-0.07,-1.56 0.01,-0.09 0.02,-0.34 0.03,-0.56 0.12,-1.96 0.41,-3.59 1.38,-7.81 0.82,-3.55 1.10,-5.00 1.37,-6.94 0.11,-0.81 0.12,-0.73-0.13,-0.75-0.98,-0.07-2.91,-0.17-2.92,-0.15-0.01,0.01-8.4e-4,0.26 0.02,0.55 0.46,7.57-1.06,12.32-4.54,14.25-2.90,1.60-7.35,1.55-10.09,-0.11-0.10,-0.06-0.10,-0.05 0.04,0.87 0.58,3.88 1.84,9.61 3.57,16.23 0.31,1.19 0.42,1.62 1.08,4.24 0.30,1.18 0.28,1.14 0.46,1.16 0.07,0.01 0.46,0.07 0.88,0.13 0.42,0.06 0.77,0.11 0.77,0.10 0.01,-0.00-0.00,-0.12-0.02,-0.25-0.14,-1.38-0.00,-1.88 0.47,-1.75 0.29,0.08 0.32,0.15 0.33,0.85 0.03,1.17 0.06,1.28 0.31,1.32 0.63,0.09 2.27,0.27 2.29,0.25 0.01,-0.01-0.00,-0.13-0.02,-0.27-0.17,-1.28-0.07,-1.80 0.35,-1.80 0.29,0.00 0.40,0.15 0.42,0.60 0.05,0.97 0.11,1.52 0.18,1.56 0.04,0.03 1.64,0.16 2.28,0.20 0.27,0.01 0.30,0.01 0.29,-0.02-0.06,-0.15-0.26,-1.67-0.23,-1.78 0.08,-0.34 0.47,-0.46 0.71,-0.22 0.10,0.10 0.11,0.28 0.18,0.89 0.05,0.45 0.18,1.03 0.21,1.12 0.02,0.06 0.13,0.07 1.78,0.11 0.40,0.01 0.79,0.02 0.88,0.02 0.15,0.00 0.16,0.00 0.14,-0.05zm1.25,-6.60c-0.27,-0.13-0.32,-0.50-0.08,-0.70 0.12,-0.10 0.70,-0.42 1.01,-0.56 0.98,-0.43 3.63,-0.39 3.86,0.06 0.20,0.39-0.13,0.69-0.64,0.58-0.23,-0.05-1.04,-0.09-1.68,-0.07-0.81,0.02-1.02,0.08-1.76,0.50-0.39,0.23-0.54,0.27-0.70,0.19zm-3.49,-3.28c-0.50,-0.02-1.58,-0.08-2.17,-0.13-0.47,-0.04-0.67,-0.36-0.44,-0.69 0.13,-0.18 0.14,-0.18 1.43,-0.09 3.51,0.25 7.49,-0.13 10.05,-0.96 1.69,-0.55 2.99,-1.24 4.88,-2.61 0.58,-0.42 0.61,-0.44 0.77,-0.44 0.33,-7.52e-4 0.53,0.36 0.35,0.63-0.13,0.20-2.08,1.53-3.02,2.06-2.77,1.57-7.06,2.38-11.85,2.23zm29.87,-7.38c-0.36,-0.19-0.30,-0.68 0.09,-0.79 0.39,-0.10 0.68,0.39 0.41,0.70-0.11,0.12-0.35,0.17-0.50,0.09zM65.25,46.15c-0.26,-0.13-0.32,-0.61-0.01,-0.76 0.41,-0.20 0.82,0.32 0.52,0.65-0.17,0.19-0.36,0.19-0.51,0.11zm19.02,-1.65c-0.18,-0.06-0.32,-0.30-0.28,-0.48 0.09,-0.38 0.59,-0.47 0.78,-0.13 0.18,0.33-0.13,0.72-0.50,0.61zm-1.91,-0.56c-0.24,-0.09-0.30,-0.24-0.26,-0.74 0.06,-0.92 0.16,-1.32 0.44,-1.72 0.46,-0.69 0.92,-0.97 2.09,-1.28 0.73,-0.20 1.02,-0.40 1.16,-0.84 0.17,-0.51 0.06,-0.83-0.51,-1.51-0.73,-0.88-1.31,-1.90-1.44,-2.57-0.20,-1.01 0.28,-2.90 0.95,-3.82 0.95,-1.29 2.96,-1.88 4.02,-1.19 0.41,0.27 0.99,1.05 0.99,1.34 5.42e-4,0.50-0.61,0.59-0.84,0.13-0.25,-0.50-0.62,-0.84-0.98,-0.90-0.48,-0.09-1.51,0.22-1.98,0.60-0.80,0.64-1.28,1.80-1.35,3.24-0.03,0.70 0.41,1.60 1.33,2.70 1.31,1.57 0.85,3.11-1.10,3.64-0.86,0.23-1.14,0.36-1.43,0.67-0.36,0.39-0.44,0.66-0.51,1.77-0.03,0.40-0.26,0.60-0.57,0.49zm3.87,-1.84c-0.16,-0.04-0.30,-0.19-0.32,-0.34-0.07,-0.50 0.61,-0.69 0.80,-0.23 0.13,0.31-0.16,0.64-0.48,0.57zM73.08,24.91c-2.50,-0.73-6.90,-1.33-9.87,-1.33-0.63,-7.76e-4-0.90,-0.55-0.39,-0.80 0.27,-0.13 3.27,0.03 5.01,0.27 2.24,0.30 4.15,0.67 5.51,1.06 0.43,0.12 0.55,0.23 0.55,0.48-6.16e-4,0.37-0.28,0.48-0.81,0.33zm-33.36,-0.91c-0.35,-0.13-0.33,-0.64 0.02,-0.78 0.22,-0.09 1.45,-0.37 2.07,-0.48 1.49,-0.25 5.01,-0.61 6.49,-0.67 1.03,-0.04 2.49,0.02 2.65,0.09 0.34,0.17 0.29,0.65-0.07,0.77-0.06,0.02-0.21,0.02-0.64,0.00-1.53,-0.07-2.41,-0.03-4.67,0.20-2.97,0.30-3.80,0.45-5.19,0.79-0.23,0.06-0.52,0.13-0.65,0.08zm30.21,17.82c1.28,-0.15 2.86,-0.65 3.63,-1.16 0.04,-0.03 0.12,-0.07 0.16,-0.10 0.91,-0.50 1.76,-1.34 2.66,-2.74 0.46,-0.71 0.84,-1.53 1.10,-2.31 0.15,-0.46 0.40,-1.65 0.44,-2.23 0.24,-3.66-2.03,-5.62-7.39,-6.40-1.71,-0.25-3.42,-0.37-8.00,-0.55-0.94,-0.04-1.98,-0.08-2.30,-0.09-0.48,-0.02-0.59,-0.02-0.61,0.00-0.03,0.04-0.11,0.43-0.18,0.88-0.06,0.34-0.08,0.53-0.13,1.08-0.03,0.35-0.04,1.97-0.01,2.60 0.14,3.72 0.74,6.31 1.81,7.93 1.36,2.05 5.44,3.48 8.83,3.08zM69.76,35.05c-0.24,-0.10-0.29,-0.44-0.13,-0.64 0.20,-0.24 0.60,-0.25 0.72,-0.02 0.22,0.46-0.21,0.81-0.59,0.65zm-26.29,5.86c1.10,-0.08 2.45,-0.46 3.42,-0.96 3.27,-1.66 4.69,-6.20 4.26,-13.54-0.04,-0.74 0.06,-0.65-0.80,-0.70-3.34,-0.19-6.30,-0.26-7.59,-0.16-2.07,0.16-3.36,0.44-4.44,1.00-0.43,0.22-1.20,0.75-1.22,0.84-0.02,0.07-0.10,0.66-0.15,1.07-0.36,2.94-0.33,6.36 0.10,10.18 0.09,0.76 0.06,0.69 0.35,0.89 1.58,1.07 3.70,1.55 6.07,1.37zm1.90,-6.96c-0.27,-0.10-0.30,-0.61 0.02,-0.76 0.49,-0.22 0.83,0.51 0.35,0.76-0.14,0.07-0.28,0.04-0.38,-6.41e-4zm35.66,4.99c0.30,-1.71 0.60,-3.26 0.94,-4.87 0.11,-0.53 0.18,-0.94 0.23,-1.13 0.04,-0.21 0.08,-0.42 0.13,-0.61 0.03,-0.13 0.08,-0.29 0.13,-0.45 0.36,-1.30 0.57,-1.69 1.34,-2.48 0.36,-0.37 0.60,-0.55 1.23,-0.91 0.46,-0.26 1.52,-0.58 2.13,-0.64 0.27,-0.03 0.27,-0.03 0.28,-0.12 0.00,-0.05 0.03,-0.30 0.05,-0.56 0.64,-6.61 0.39,-9.05-1.32,-12.73C85.61,13.27 84.56,11.49 83.94,10.72 82.68,9.12 81.49,7.92 80.20,6.95 77.84,5.16 75.71,3.83 73.96,3.05 71.88,2.13 70.97,1.84 68.53,1.31 67.62,1.11 65.95,0.93 64.63,0.88 63.12,0.82 62.94,0.82 61.53,0.94 58.17,1.23 55.01,2.16 51.67,3.81 50.32,4.49 50.17,4.57 49.14,5.24c-1.49,0.96-2.53,1.78-4.14,3.23-0.69,0.62-1.89,2.00-2.64,3.01-0.23,0.31-0.71,1.03-0.74,1.09-0.02,0.04-0.05,0.06 0.39,-0.23 0.89,-0.60 1.27,-0.79 2.36,-1.19 0.48,-0.18 0.63,-0.21 1.31,-0.30 1.35,-0.17 2.80,0.34 4.87,1.74 3.00,2.01 4.47,2.47 6.97,2.17 1.14,-0.14 2.75,-0.53 4.89,-1.19 4.20,-1.29 5.72,-1.59 7.96,-1.53 1.61,0.04 3.05,0.58 3.84,1.46 1.06,1.18 1.35,2.64 0.97,5.07-0.31,1.99-0.17,2.52 0.81,3.30 0.52,0.41 0.73,0.56 1.24,0.87 1.71,1.05 2.40,1.59 3.05,2.39 1.37,1.70 1.65,4.16 0.85,7.35-0.23,0.92-1.08,4.15-1.17,4.48-0.13,0.44-0.43,1.39-0.57,1.79-0.07,0.20-0.12,0.36-0.11,0.37 0.01,0.01 0.22,0.03 0.46,0.06 0.24,0.03 0.60,0.07 0.78,0.09 0.19,0.02 0.36,0.04 0.38,0.04 0.03,-0.00 0.05,-0.09 0.10,-0.37zM36.10,37.79c-0.30,-2.90-0.33,-6.08-0.09,-8.55 0.02,-0.26 0.04,-0.47 0.04,-0.48-0.01,-0.00-0.07,0.11-0.14,0.26-0.75,1.58-1.04,3.75-0.80,6.10 0.10,1.01 0.45,2.16 0.86,2.87 0.19,0.33 0.19,0.34 0.13,-0.21z"/>
</svg>
