<?xml version="1.0" encoding="UTF-8" standalone="no"?>
<svg xmlns="http://www.w3.org/2000/svg" viewBox="0 0 512 512">
    <circle style="fill: #141414" cx="256" cy="256" r="256"/>
    <path style="fill: #DB70A6" fill-rule="evenodd" d="m96.96,255.96c0.00,-87.82 71.20,-159.02 159.02,-159.02 87.82,0.00 159.02,71.20 159.02,159.02 0.00,0.74 0.05,1.47 0.14,2.18-0.07,0.69-0.10,1.39-0.08,2.10 0.14,5.58-0.58,14.25-2.41,22.53-2.00,9.02-4.60,14.20-6.12,15.80-6.62,6.95-15.73,10.98-25.33,11.21-9.60,0.23-18.89,-3.36-25.84,-9.98-4.54,-4.33-5.85,-10.68-6.20,-25.45l-2.53,-105.24c-0.22,-9.08-7.76,-16.27-16.84,-16.05-9.08,0.22-16.27,7.76-16.05,16.84l0.36,15.19c-15.82,-12.99-36.06,-20.78-58.12,-20.78-50.62,0.00-91.65,41.03-91.65,91.65 0.00,50.62 41.03,91.65 91.65,91.65 27.95,0.00 52.98,-12.51 69.79,-32.24 1.89,2.87 4.15,5.64 6.89,8.24 13.27,12.64 31.01,19.49 49.33,19.05 18.32,-0.44 35.71,-8.14 48.35,-21.41 8.11,-8.51 12.21,-21.38 14.43,-31.38 2.38,-10.74 3.38,-22.06 3.18,-30.43-0.01,-0.60-0.06,-1.20-0.14,-1.78 0.06,-0.56 0.09,-1.12 0.09,-1.70 0.00,-105.99-85.93,-191.92-191.92,-191.92-105.99,0.00-191.92,85.93-191.92,191.92 0.00,105.99 85.93,191.92 191.92,191.92 44.81,0.00 86.08,-15.38 118.74,-41.13 7.13,-5.63 8.36,-15.97 2.73,-23.11-5.62,-7.13-15.97,-8.36-23.10,-2.73-27.07,21.34-61.21,34.07-98.38,34.08-87.82,0.00-159.02,-71.20-159.02,-159.02zM255.98,197.21c-32.45,0.00-58.75,26.30-58.75,58.75 0.00,32.45 26.30,58.75 58.75,58.75 32.45,0.00 58.75,-26.30 58.75,-58.75 0.00,-32.45-26.30,-58.75-58.75,-58.75z"/>
</svg>
