<?xml version="1.0" encoding="UTF-8" standalone="no"?>
<svg xmlns="http://www.w3.org/2000/svg" viewBox="0 0 512 512">
    <circle style="fill: #DB70A6" cx="256" cy="256" r="256"/>
    <path style="fill: #141414" d="m99.29,99.29 0.00,313.64 313.64,-0.00-0.00,-313.64zm97.55,260.56-46.53,2.8e-4-8.9e-4,-140.00 46.53,-3e-4zm-23.27,-159.10-0.31,-5e-5c-15.61,10e-5-25.73,-10.75-25.73,-24.20-9e-5,-13.74 10.41,-24.19 26.34,-24.19 15.93,-1.4e-4 25.72,10.45 26.02,24.19 0.00,13.44-10.09,24.20-26.33,24.20zm191.10,159.10-46.54,2.9e-4-4.8e-4,-74.90c-1.4e-4,-18.81-6.72,-31.65-23.57,-31.65-12.87,4e-5-20.51,8.65-23.88,17.02-1.22,2.99-1.54,7.15-1.54,11.35l5e-4,78.19-46.55,3e-4c0.00,0.00 0.62,-126.86-7e-4,-139.00l46.55,-8e-5v19.84c6.18,-9.52 17.22,-23.12 41.95,-23.12 30.63,-2.2e-4 53.59,20.00 53.59,63.00z"/>
</svg>
